<?xml version="1.0" encoding="UTF-8"?>
<svg id="Layer_1" xmlns="http://www.w3.org/2000/svg" version="1.1" viewBox="0 0 174.5 52.9">
  <!-- Generator: Adobe Illustrator 29.6.1, SVG Export Plug-In . SVG Version: 2.1.1 Build 9)  -->
  <defs>
    <style>
      .st0 {
        fill: #1e9df1;
      }

      .st1 {
        fill: #2a303e;
      }
    </style>
  </defs>
  <path class="st0" d="M43.8,12.9c.7-2.2-1.8-4-3.7-2.7L6.3,33.9c-1.1.8-1.4,2.4-.6,3.6h0c.8,1.1,2.4,1.4,3.6.6l27-19.6c.2-.2.6,0,.5.3l-5.1,16.3c0,.2-.3.3-.5.1l-2.9-3.1c-.2-.2-.4-.3-.6-.3h-4.7c-.8,0-1.2.9-.6,1.5l8.5,9c1.3,1.4,3.6.8,4.1-1l8.7-28.5Z"/>
  <path class="st0" d="M3,18.4l20.7-.3c.5,0,.7.6.3.9l-10.5,7.4c-.2.2-.6.2-.8,0l-10.1-6.8c-.5-.4-.3-1.2.4-1.2Z"/>
  <g>
    <path class="st1" d="M60.7,40.6c-3.2,0-5.7-.9-7.6-2.7-1.9-1.8-2.8-4.4-2.8-7.7v-6.2c0-3.4.9-5.9,2.8-7.7,1.9-1.8,4.4-2.7,7.6-2.7s5.6.9,7.3,2.6c1.7,1.7,2.6,4.1,2.6,7.1v.2h-4.4v-.3c0-1.6-.5-3-1.4-4-.9-1-2.3-1.6-4.2-1.6s-3.3.6-4.3,1.7c-1.1,1.1-1.6,2.7-1.6,4.7v6.3c0,2,.5,3.5,1.6,4.6,1,1.1,2.5,1.7,4.3,1.7s3.3-.5,4.2-1.6c.9-1,1.4-2.4,1.4-4v-.6h4.4v.5c0,3-.9,5.4-2.6,7.1-1.7,1.7-4.2,2.6-7.3,2.6Z"/>
    <path class="st1" d="M73.6,40.1V14.2h16.2v4h-11.7v6.9h10.7v4.1h-10.7v11h-4.5Z"/>
    <path class="st1" d="M92.4,40.1V14.2h4.5v25.9h-4.5Z"/>
    <path class="st1" d="M100.7,40.1V14.2h10.5c1.6,0,3.1.3,4.3,1,1.2.6,2.2,1.6,2.9,2.7.7,1.2,1.1,2.6,1.1,4.2v.5c0,1.6-.4,3-1.1,4.2-.7,1.2-1.7,2.1-3,2.7-1.2.6-2.7,1-4.2,1h-6v9.7h-4.5ZM105.2,26.4h5.6c1.3,0,2.3-.3,3.1-1,.8-.7,1.2-1.6,1.2-2.9v-.4c0-1.2-.4-2.2-1.1-2.9-.8-.7-1.8-1-3.1-1h-5.6v8.2Z"/>
    <path class="st1" d="M122.1,40.1v-18.3h4.2v2.1h.6c.3-.8.7-1.3,1.4-1.7.6-.3,1.4-.5,2.3-.5h2.2v3.8h-2.3c-1.2,0-2.2.3-3,1-.8.7-1.1,1.7-1.1,3v10.6h-4.3Z"/>
    <path class="st1" d="M144.1,40.6c-1.8,0-3.5-.4-4.9-1.1s-2.6-1.8-3.4-3.2c-.8-1.4-1.2-3.1-1.2-5v-.6c0-2,.4-3.6,1.2-5,.8-1.4,2-2.5,3.4-3.2,1.4-.7,3.1-1.1,4.9-1.1s3.5.4,4.9,1.1c1.4.7,2.6,1.8,3.4,3.2.8,1.4,1.2,3.1,1.2,5v.6c0,2-.4,3.6-1.2,5-.8,1.4-2,2.5-3.4,3.2-1.4.8-3.1,1.1-4.9,1.1ZM144.1,36.9c1.6,0,2.8-.5,3.8-1.5,1-1,1.5-2.4,1.5-4.2v-.4c0-1.8-.5-3.2-1.5-4.2-1-1-2.3-1.5-3.8-1.5s-2.8.5-3.8,1.5c-1,1-1.5,2.4-1.5,4.2v.4c0,1.8.5,3.2,1.5,4.2,1,1,2.3,1.5,3.8,1.5Z"/>
    <path class="st1" d="M164.5,40.6c-2.4,0-4.3-.5-5.9-1.6-1.5-1-2.5-2.6-2.8-4.6l3.9-1c.2.9.5,1.7.9,2.2.4.5,1,.9,1.6,1.1.7.2,1.4.3,2.1.3,1.2,0,2-.2,2.6-.6.6-.4.9-1,.9-1.6s-.3-1.2-.8-1.5c-.6-.3-1.4-.6-2.5-.8l-1.1-.2c-1.3-.2-2.4-.6-3.4-1-1-.4-1.9-1-2.5-1.8-.6-.8-.9-1.7-.9-2.9,0-1.8.7-3.1,2-4.1,1.3-1,3.1-1.4,5.2-1.4s3.7.5,5.1,1.4c1.3.9,2.2,2.1,2.6,3.7l-3.9,1.2c-.2-1-.6-1.8-1.3-2.2-.7-.4-1.5-.6-2.4-.6s-1.7.2-2.3.5c-.5.3-.8.8-.8,1.5s.3,1.1.8,1.4c.5.3,1.3.6,2.2.7l1.1.2c1.4.2,2.6.6,3.7,1,1.1.4,2,1,2.6,1.7.6.7,1,1.7,1,3,0,1.9-.7,3.4-2.1,4.4-1.4,1-3.2,1.5-5.5,1.5Z"/>
  </g>
  <path class="st0" d="M43.8,12.9c.7-2.2-1.8-4-3.7-2.7L6.3,33.9c-1.1.8-1.4,2.4-.6,3.6h0c.8,1.1,2.4,1.4,3.6.6l27-19.6c.2-.2.6,0,.5.3l-5.1,16.3c0,.2-.3.3-.5.1l-2.9-3.1c-.2-.2-.4-.3-.6-.3h-4.7c-.8,0-1.2.9-.6,1.5l8.5,9c1.3,1.4,3.6.8,4.1-1l8.7-28.5Z"/>
</svg>